<?xml version="1.0" encoding="UTF-8"?>
<svg width="100" height="100" viewBox="0 0 100 100" xmlns="http://www.w3.org/2000/svg">
    <!-- Minimalistic Premium Design - Apple/Cloudflare/Oracle Style -->
    <defs>
        <linearGradient id="minimal-gradient" x1="0%" y1="0%" x2="100%" y2="100%">
            <stop offset="0%" style="stop-color:#ffffff;stop-opacity:0.95" />
            <stop offset="100%" style="stop-color:#e8e8e8;stop-opacity:0.9" />
        </linearGradient>
    </defs>
    
    <!-- Clean K Letter -->
    <path d="M20 20 L20 80 L28 80 L28 55 L50 80 L60 80 L38 55 L60 20 L50 20 L32 45 L28 40 L28 20 Z" 
          fill="url(#minimal-gradient)" 
          stroke="none"/>
    
    <!-- Simple Geometric Cube -->
    <g transform="translate(55, 25) scale(0.45)">
        <!-- Clean flat design -->
        <path d="M20 20 L50 5 L80 20 L50 35 Z" 
              fill="rgba(255,255,255,0.9)" 
              stroke="none"/>
        <path d="M20 20 L50 35 L50 65 L20 50 Z" 
              fill="rgba(255,255,255,0.7)" 
              stroke="none"/>
        <path d="M50 35 L80 20 L80 50 L50 65 Z" 
              fill="rgba(255,255,255,0.8)" 
              stroke="none"/>
        
        <!-- Minimal grid lines -->
        <g stroke="rgba(255,255,255,0.4)" stroke-width="0.5" fill="none" opacity="0.6">
            <path d="M30 12.5 L60 27.5 M40 7.5 L70 22.5"/>
            <path d="M35 17.5 L65 12.5 M45 22.5 L75 17.5"/>
            <path d="M20 30 L50 45 M20 40 L50 55"/>
            <path d="M30 22.5 L30 52.5 M40 25 L40 55"/>
            <path d="M60 22.5 L60 52.5 M70 25 L70 55"/>
            <path d="M50 45 L80 30 M50 55 L80 40"/>
        </g>
        
        <!-- Subtle center point -->
        <circle cx="50" cy="42.5" r="2" 
                fill="rgba(255,255,255,0.8)"/>
    </g>
</svg>