<?xml version="1.0" encoding="UTF-8"?>
<svg width="120" height="100" viewBox="0 0 120 100" xmlns="http://www.w3.org/2000/svg">
    <!-- Premium Gradients -->
    <defs>
        <linearGradient id="darkSilverGradient" x1="0%" y1="0%" x2="100%" y2="100%">
            <stop offset="0%" style="stop-color:#c0c0c0;stop-opacity:1" />
            <stop offset="50%" style="stop-color:#a8a8a8;stop-opacity:0.9" />
            <stop offset="100%" style="stop-color:#808080;stop-opacity:0.8" />
        </linearGradient>
        <linearGradient id="goldTopGradient" x1="0%" y1="0%" x2="100%" y2="100%">
            <stop offset="0%" style="stop-color:#ffd700;stop-opacity:0.9" />
            <stop offset="50%" style="stop-color:#ffb300;stop-opacity:0.8" />
            <stop offset="100%" style="stop-color:#ff8f00;stop-opacity:0.7" />
        </linearGradient>
        <linearGradient id="goldLeftGradient" x1="0%" y1="0%" x2="100%" y2="100%">
            <stop offset="0%" style="stop-color:#ffb300;stop-opacity:0.8" />
            <stop offset="50%" style="stop-color:#ff8f00;stop-opacity:0.7" />
            <stop offset="100%" style="stop-color:#424242;stop-opacity:0.6" />
        </linearGradient>
        <linearGradient id="goldRightGradient" x1="0%" y1="0%" x2="100%" y2="100%">
            <stop offset="0%" style="stop-color:#ff8f00;stop-opacity:0.8" />
            <stop offset="50%" style="stop-color:#e65100;stop-opacity:0.7" />
            <stop offset="100%" style="stop-color:#212121;stop-opacity:0.6" />
        </linearGradient>
        <filter id="glow">
            <feGaussianBlur stdDeviation="3" result="coloredBlur"/>
            <feMerge> 
                <feMergeNode in="coloredBlur"/>
                <feMergeNode in="SourceGraphic"/>
            </feMerge>
        </filter>
    </defs>
    
    <!-- K Letter - Dark Silver -->
    <path d="M15 15 L15 85 L25 85 L25 55 L45 85 L55 85 L35 55 L55 15 L45 15 L28 45 L25 35 L25 15 Z" 
          fill="url(#darkSilverGradient)" 
          stroke="rgba(255,255,255,0.3)" 
          stroke-width="0.5"/>
    
    <!-- Cube - Metallic Gold with Dark Accents -->
    <g transform="translate(45, 15) scale(0.6)">
        <!-- Top face - Bright gold -->
        <path d="M20 20 L60 0 L100 20 L60 40 Z" 
              fill="url(#goldTopGradient)" 
              stroke="rgba(255,255,255,0.4)" 
              stroke-width="1"/>
        <!-- Left face - Gold to dark -->
        <path d="M20 20 L60 40 L60 100 L20 80 Z" 
              fill="url(#goldLeftGradient)" 
              stroke="rgba(0,0,0,0.3)" 
              stroke-width="1"/>
        <!-- Right face - Gold to black -->
        <path d="M60 40 L100 20 L100 80 L60 100 Z" 
              fill="url(#goldRightGradient)" 
              stroke="rgba(0,0,0,0.4)" 
              stroke-width="1"/>
        <!-- Grid lines with premium styling -->
        <g stroke-width="0.5" fill="none">
            <!-- Top face grid - light lines -->
            <g stroke="rgba(255,255,255,0.3)">
                <path d="M30 15 L70 35 M40 10 L80 30 M50 5 L90 25"/>
                <path d="M35 25 L75 5 M45 30 L85 10 M55 35 L95 15"/>
            </g>
            <!-- Left face grid - darker lines -->
            <g stroke="rgba(0,0,0,0.2)">
                <path d="M20 35 L60 55 M20 50 L60 70 M20 65 L60 85"/>
                <path d="M35 30 L35 90 M50 35 L50 95"/>
            </g>
            <!-- Right face grid - darkest lines -->
            <g stroke="rgba(0,0,0,0.3)">
                <path d="M75 30 L75 90 M90 25 L90 85"/>
                <path d="M60 55 L100 35 M60 70 L100 50 M60 85 L100 65"/>
            </g>
        </g>
        <!-- Central glow effect - Golden accent -->
        <circle cx="60" cy="60" r="6" 
                fill="rgba(255, 215, 0, 0.5)" 
                filter="url(#glow)"/>
        <circle cx="60" cy="60" r="3" 
                fill="rgba(255, 255, 255, 0.8)"/>
    </g>
</svg>